<svg xmlns="http://www.w3.org/2000/svg" viewBox="0 0 459 527" role="img" aria-label="Lord Kinfauns Foundation coat of arms" class="kinfauns-arms">  <g transform="translate(0.000000,527.000000) scale(0.100000,-0.100000)" fill="#B8975A" stroke="none"> <path d="M250 5136 c-15 -15 -12 -49 5 -72 22 -29 19 -33 -25 -27 -48 7 -54 -4 -43 -72 5 -32 15 -52 30 -62 20 -14 24 -13 48 11 14 14 28 26 31 26 3 0 4 -17 2 -37 -2 -30 1 -38 16 -41 28 -6 40 12 25 36 -17 28 -4 40 19 19 24 -22 34 -21 66 4 22 17 26 28 26 70 l0 49 -45 0 c-25 0 -45 2 -45 3 0 2 7 18 15 34 15 30 12 62 -6 64 -39 6 -112 2 -119 -5z"/> <path d="M1395 5137 c-19 -10 -19 -46 0 -71 23 -31 18 -37 -24 -30 -21 3 -41 2 -44 -2 -2 -5 -2 -33 0 -62 5 -44 10 -56 29 -64 20 -9 28 -8 47 10 32 30 36 28 30 -18 -5 -36 -4 -40 17 -40 20 0 21 3 15 40 -8 45 -4 49 25 20 26 -26 36 -25 64 5 25 27 42 87 30 106 -3 6 -24 9 -45 7 -22 -2 -39 -2 -39 0 0 2 7 20 16 39 16 32 16 36 0 51 -18 18 -95 24 -121 9z"/> <path d="M2184 5125 c-15 -23 -15 -27 4 -60 l21 -34 -43 5 c-35 5 -44 3 -50 -11 -3 -10 -1 -24 5 -31 6 -7 9 -19 6 -26 -7 -20 21 -68 40 -68 9 0 30 12 46 28 l29 27 -7 -48 c-6 -47 -6 -48 17 -45 24 3 25 12 12 58 -7 24 -7 24 13 8 48 -43 110 -4 109 67 -1 40 -1 40 -43 43 -47 3 -50 7 -28 36 21 28 19 43 -10 62 -20 13 -28 14 -39 4 -11 -8 -20 -8 -35 -1 -27 15 -28 14 -47 -14z"/> <path d="M3056 5143 c-4 -5 -22 -8 -39 -8 -27 0 -32 -4 -35 -27 -2 -15 4 -38 13 -52 l17 -25 -44 2 -43 2 -1 -53 c-2 -83 35 -106 88 -55 l28 27 0 -27 c0 -14 -4 -29 -10 -32 -5 -3 -10 -13 -10 -21 0 -11 8 -14 28 -12 28 3 29 7 17 47 -6 21 -5 23 11 16 11 -4 32 -10 48 -13 39 -6 65 28 66 87 l0 44 -50 -6 c-27 -3 -50 -4 -50 -2 0 2 9 20 21 39 16 28 18 39 9 55 -11 21 -49 28 -64 14z"/> <path d="M4151 5141 c-19 -12 -17 -58 3 -80 23 -25 21 -28 -26 -27 l-43 1 3 -55 c2 -30 8 -61 14 -67 15 -19 42 -16 63 7 28 31 38 24 31 -20 -6 -38 -5 -40 19 -40 18 0 25 5 25 19 0 11 -4 23 -10 26 -5 3 -10 13 -10 21 0 13 6 12 34 -5 l34 -22 25 23 c26 24 41 85 27 108 -5 9 -21 11 -50 7 -36 -5 -41 -3 -35 11 28 65 29 71 16 86 -15 18 -47 21 -56 6 -4 -7 -12 -7 -25 0 -22 12 -21 12 -39 1z"/> <path d="M490 3727 c0 -1052 2 -1117 36 -1307 54 -296 177 -598 351 -862 233 -355 557 -628 974 -819 141 -65 373 -149 412 -149 59 0 319 100 512 198 367 185 662 460 903 842 144 229 240 470 302 760 44 205 49 343 50 1381 0 537 -3 984 -6 993 -6 15 -162 16 -1770 16 l-1764 -1 0 -1052z m821 901 c22 -6 39 -16 39 -22 0 -6 -11 -29 -25 -51 -33 -54 -32 -69 3 -61 142 32 199 37 277 26 153 -22 276 -77 480 -213 240 -160 302 -186 471 -194 l112 -6 5 -61 c2 -34 0 -67 -6 -73 -12 -16 -204 -18 -244 -2 -15 6 -52 17 -81 25 -85 22 -177 73 -372 204 -73 49 -160 88 -245 111 -140 37 -259 17 -365 -61 -86 -64 -117 -98 -183 -201 -177 -272 -267 -602 -267 -980 0 -221 31 -415 100 -618 40 -120 141 -319 202 -400 25 -33 23 -45 -18 -113 l-36 -59 -30 28 c-46 44 -102 134 -167 266 -113 233 -168 438 -197 744 -14 152 -14 182 1 355 21 240 29 287 98 528 45 157 159 411 283 625 28 50 65 118 83 153 17 34 34 62 37 62 4 0 24 -5 45 -12z m1913 -122 c82 -40 162 -115 196 -184 25 -49 40 -152 22 -152 -5 0 -28 31 -51 69 -73 124 -231 240 -350 256 -31 4 -52 12 -56 23 -10 26 16 33 94 28 59 -4 90 -12 145 -40z m-294 -28 c11 -18 34 -76 51 -128 34 -103 55 -148 91 -196 37 -49 165 -156 260 -217 217 -139 276 -264 233 -487 -27 -137 -17 -196 54 -313 32 -55 35 -65 40 -167 6 -102 8 -111 34 -138 33 -34 26 -43 -20 -30 -47 12 -64 46 -74 146 -8 74 -16 101 -56 182 -47 92 -48 98 -47 180 1 47 5 132 9 190 6 95 5 111 -15 165 -28 75 -123 172 -254 260 -137 91 -177 126 -222 193 -23 33 -51 93 -64 132 -13 39 -40 105 -61 147 -29 59 -36 80 -28 94 15 29 47 23 69 -13z m104 -58 c34 -70 112 -167 157 -196 22 -14 77 -39 122 -56 112 -44 197 -89 214 -115 23 -35 1 -34 -72 4 -39 20 -120 48 -183 63 -96 24 -120 34 -149 62 -44 42 -74 94 -107 182 -43 114 -30 155 18 56z m73 25 c58 -25 129 -84 198 -167 36 -42 65 -79 65 -82 0 -11 -105 36 -146 66 -45 32 -182 198 -164 198 6 0 27 -7 47 -15z m-233 -143 c15 -34 35 -108 45 -165 17 -98 46 -173 93 -240 11 -15 28 -55 38 -90 10 -34 37 -98 60 -143 51 -96 62 -176 37 -264 -9 -30 -29 -100 -45 -155 -15 -55 -44 -136 -64 -180 -86 -189 -98 -300 -56 -506 12 -60 19 -111 15 -115 -3 -4 -28 13 -54 36 -53 47 -115 79 -153 80 -13 0 -59 -12 -102 -26 -63 -22 -87 -25 -132 -20 -64 8 -107 36 -91 60 6 8 28 41 50 73 69 101 86 158 112 358 l8 60 45 1 c56 2 130 38 228 112 99 74 150 142 106 142 -8 0 -34 -13 -57 -28 -71 -48 -128 -78 -227 -120 -211 -89 -297 -100 -422 -56 -137 49 -231 103 -413 239 -49 37 -119 82 -155 100 -36 18 -88 48 -117 66 -28 19 -73 47 -99 62 -59 35 -52 44 15 17 62 -24 63 -24 59 -4 -2 9 -32 33 -67 53 -83 47 -93 71 -14 35 93 -42 112 -49 120 -40 10 10 -28 38 -94 71 -52 25 -68 45 -38 45 20 0 99 -40 171 -86 66 -42 89 -39 78 8 -10 49 -10 60 2 65 13 4 48 -72 68 -150 21 -81 30 -92 104 -136 60 -36 113 -61 374 -177 96 -42 133 -43 212 -3 165 83 320 216 385 331 61 106 63 260 6 322 -21 22 -32 26 -84 26 -37 0 -63 5 -68 13 -7 11 -13 65 -14 130 0 18 -8 33 -24 43 -31 21 -31 32 1 75 14 19 41 67 60 108 34 73 35 74 53 55 10 -10 30 -47 45 -82z m-1270 -38 c10 -26 7 -474 -3 -474 -40 0 -41 3 -41 244 0 128 3 236 7 239 11 12 31 7 37 -9z m156 -225 c0 -193 -1 -209 -19 -218 -10 -6 -21 -7 -25 -4 -3 3 -6 102 -6 219 0 161 3 213 13 217 35 12 37 -2 37 -214z m-310 -13 c0 -217 -4 -242 -36 -215 -22 18 -16 405 6 419 8 5 18 10 23 10 4 0 7 -96 7 -214z m458 -160 c2 -245 0 -317 -10 -314 -6 2 -16 18 -21 34 -11 33 -22 566 -13 590 3 8 14 14 23 12 17 -3 18 -27 21 -322z m-608 -780 c0 -905 -2 -1025 -15 -1036 -9 -7 -19 -10 -23 -6 -4 4 -6 464 -6 1022 2 1026 2 1044 35 1044 5 0 9 -443 9 -1024z m764 957 c3 -25 6 -167 6 -315 l0 -269 -22 3 -23 3 -3 317 c-2 306 -2 316 17 311 13 -3 20 -17 25 -50z m1136 -157 c105 -79 183 -174 198 -241 7 -34 3 -59 -31 -165 -27 -87 -41 -150 -44 -207 l-5 -82 53 -113 c53 -111 54 -115 54 -203 0 -84 -3 -95 -37 -167 -59 -120 -48 -197 33 -238 22 -12 37 -25 34 -30 -10 -17 -66 -11 -100 10 -78 48 -91 157 -35 280 30 65 35 85 35 150 -1 69 -5 84 -43 158 -23 45 -45 100 -48 121 -9 55 11 157 47 248 27 68 31 86 27 148 -8 121 -59 202 -184 291 -95 68 -164 158 -164 214 0 17 12 8 57 -41 32 -34 101 -94 153 -133z m139 168 c168 -73 272 -159 325 -266 36 -74 46 -204 22 -296 -35 -138 -31 -207 15 -266 17 -22 29 -26 70 -26 27 0 49 -5 49 -10 0 -16 -62 -50 -90 -50 -36 0 -83 47 -105 103 -16 41 -17 62 -9 150 4 56 8 147 9 202 0 90 -3 106 -28 155 -32 65 -109 147 -189 201 -31 22 -59 39 -62 39 -13 0 -126 74 -126 82 0 14 72 2 119 -18z m-1121 -361 c2 -245 0 -303 -11 -303 -35 0 -37 20 -37 318 l0 293 23 -3 22 -3 3 -302z m153 225 c15 -29 8 -553 -8 -569 -29 -29 -33 5 -33 297 0 251 2 294 15 294 8 0 20 -10 26 -22z m157 -172 c2 -130 0 -163 -13 -182 -8 -13 -20 -24 -25 -24 -11 0 -14 353 -3 364 4 4 14 5 23 4 13 -3 15 -28 18 -162z m152 96 c0 -56 -4 -72 -20 -87 -20 -18 -20 -17 -20 68 0 80 2 87 20 87 18 0 20 -7 20 -68z m178 36 c20 -20 13 -46 -18 -70 -17 -12 -54 -56 -82 -97 -28 -42 -70 -98 -93 -126 -22 -27 -62 -81 -87 -120 -26 -38 -63 -87 -82 -107 -32 -35 -80 -58 -93 -45 -10 11 123 200 250 357 29 36 79 100 111 143 59 78 72 87 94 65z m312 -108 c27 -22 61 -62 77 -88 25 -43 28 -56 28 -142 0 -80 -5 -107 -30 -175 -24 -66 -29 -96 -29 -170 -1 -87 0 -93 42 -172 36 -70 42 -90 42 -143 0 -72 -18 -114 -60 -135 -40 -21 -72 -19 -104 6 -37 29 -35 51 3 36 39 -15 79 6 98 50 18 44 5 99 -43 176 -56 90 -58 159 -10 324 55 186 49 243 -37 388 -27 46 -42 85 -32 85 4 0 29 -18 55 -40z m-309 -97 c-32 -65 -86 -136 -150 -200 -45 -44 -111 -88 -111 -73 0 5 40 60 88 122 48 62 100 134 115 160 15 25 39 61 54 79 l28 33 3 -31 c2 -20 -8 -53 -27 -90z m593 -95 c10 -37 7 -76 -11 -164 -23 -111 -11 -187 50 -304 72 -138 83 -222 42 -342 -14 -40 -25 -83 -25 -95 0 -58 48 -103 109 -103 39 0 47 -15 19 -34 -72 -50 -188 27 -188 124 0 18 9 71 21 119 28 116 21 167 -43 301 -46 98 -50 111 -55 200 -4 86 -2 104 26 194 17 54 31 105 31 112 0 22 17 16 24 -8z m-2016 0 c9 -9 12 -178 12 -699 0 -619 -2 -687 -16 -693 -9 -3 -20 -4 -24 -1 -9 6 -12 1383 -4 1397 7 11 18 10 32 -4z m160 -100 c9 -9 12 -143 12 -543 0 -521 0 -532 -20 -553 -12 -12 -23 -22 -25 -22 -3 0 -5 254 -5 565 0 584 0 591 38 553z m150 -90 c16 -16 17 -779 2 -809 -6 -10 -17 -19 -25 -19 -13 0 -15 57 -15 413 0 228 3 417 7 420 9 10 17 9 31 -5z m162 -351 c0 -203 -3 -246 -16 -265 -8 -12 -19 -22 -25 -22 -10 0 -13 533 -3 543 4 3 15 2 25 -4 18 -9 19 -26 19 -252z m138 141 c8 -8 12 -47 12 -108 0 -83 -3 -99 -19 -114 -13 -12 -21 -14 -26 -6 -9 14 5 240 14 240 4 0 12 -5 19 -12z m210 -107 l24 -18 -79 -109 c-202 -278 -283 -386 -353 -469 -42 -49 -86 -104 -98 -122 -12 -17 -53 -54 -91 -81 -37 -28 -97 -76 -132 -107 -73 -65 -95 -79 -104 -65 -3 5 11 26 33 47 21 21 55 61 77 88 22 28 74 91 116 140 87 103 170 209 272 345 39 52 93 123 121 156 28 34 77 96 110 138 32 42 63 76 70 76 6 0 22 -9 34 -19z m158 -41 c47 0 53 -2 47 -17 -10 -25 -132 -227 -217 -358 -39 -60 -76 -122 -83 -136 -9 -22 -35 -36 -145 -79 -73 -28 -144 -58 -156 -67 -53 -33 -30 8 63 118 27 32 100 131 242 330 118 164 165 220 180 215 8 -3 39 -6 69 -6z m48 -515 c84 -32 135 -31 246 0 82 24 91 25 124 11 58 -24 164 -117 172 -149 3 -16 3 -31 1 -34 -6 -6 -81 44 -136 90 -56 48 -74 50 -144 21 -56 -24 -71 -26 -162 -22 -111 5 -151 20 -184 66 -35 49 -14 53 83 17z m-130 -72 c-1 -7 -2 -35 -2 -63 -2 -46 -4 -50 -26 -50 -44 0 -76 19 -93 54 -25 53 2 76 87 72 21 0 35 -6 34 -13z m101 -38 c51 -24 65 -42 65 -89 0 -16 -6 -18 -47 -13 -50 5 -78 28 -89 73 -6 25 0 54 12 54 4 0 31 -11 59 -25z m373 9 c28 -19 28 -41 0 -71 -28 -30 -80 -31 -109 -2 -29 29 -20 49 31 69 57 23 52 23 78 4z m-628 -35 c11 -27 11 -35 -4 -60 -12 -20 -16 -45 -14 -82 l3 -52 -33 -3 c-26 -3 -40 4 -68 32 -36 36 -36 37 -29 94 8 69 9 70 49 88 53 23 82 18 96 -17z m462 -16 c28 -25 23 -59 -10 -71 -15 -5 -37 -6 -48 -1 -25 9 -64 55 -64 75 0 21 98 19 122 -3z m-638 -12 c3 -5 1 -23 -6 -41 -8 -25 -8 -41 2 -68 11 -32 11 -37 -6 -49 -42 -31 -130 3 -135 52 -4 46 2 54 64 84 69 33 74 35 81 22z m925 -26 c46 -28 47 -32 27 -80 -18 -42 -46 -46 -81 -10 -25 24 -31 57 -19 103 7 26 14 25 73 -13z m-631 -22 c38 -5 42 -8 35 -27 -4 -12 -8 -40 -8 -63 0 -23 -3 -44 -6 -48 -4 -3 -26 -1 -48 5 -63 17 -97 81 -70 132 8 14 17 18 32 14 12 -4 41 -9 65 -13z m524 -49 c27 -58 17 -78 -40 -82 -52 -4 -92 30 -92 77 0 32 6 36 75 44 17 2 31 5 32 6 2 0 13 -20 25 -45z m-1002 4 c0 -12 5 -36 11 -53 10 -27 9 -36 -12 -68 -26 -39 -38 -43 -87 -26 -22 8 -34 20 -42 45 -14 42 -6 54 60 95 54 34 70 36 70 7z m654 8 c5 -1 10 -18 12 -36 1 -19 4 -46 6 -60 2 -21 -2 -26 -24 -28 -67 -8 -147 85 -107 125 9 9 76 8 113 -1z m144 -10 c25 0 32 -4 32 -18 0 -10 8 -30 17 -45 16 -24 16 -26 -2 -39 -25 -19 -75 -18 -103 2 -59 41 -62 125 -4 108 15 -4 42 -8 60 -8z m-964 -118 c-7 -73 -6 -100 6 -112 17 -17 11 -43 -12 -50 -62 -16 -132 12 -144 59 -5 21 0 34 27 62 37 39 107 93 120 93 5 0 6 -24 3 -52z m1650 43 c4 -5 -23 -19 -58 -31 -36 -12 -77 -30 -91 -42 -14 -11 -51 -27 -82 -35 -91 -24 -168 -69 -249 -145 -107 -102 -130 -153 -174 -383 -6 -33 -18 -81 -26 -107 -15 -47 -17 -48 -55 -48 -21 0 -39 2 -39 3 0 2 13 30 29 63 16 32 34 91 41 129 41 233 123 369 290 480 87 58 149 84 260 110 66 15 147 19 154 6z m-1224 -26 c14 -8 36 -14 50 -15 24 0 25 -3 24 -57 l-1 -58 -34 -3 c-60 -5 -111 60 -95 123 7 28 20 31 56 10z m-139 -12 c33 -4 37 -8 49 -55 15 -59 8 -68 -52 -68 -28 0 -42 7 -62 31 -27 31 -30 47 -19 87 4 19 10 22 27 17 11 -4 37 -9 57 -12z m337 -16 c32 -9 41 -15 36 -27 -4 -8 -6 -22 -6 -30 7 -78 8 -75 -19 -78 -52 -6 -116 73 -104 130 6 25 10 29 28 23 12 -4 41 -12 65 -18z m551 3 c6 0 -31 -54 -57 -82 -14 -16 -34 -28 -44 -28 -32 0 -49 60 -28 99 8 16 45 20 129 11z m-383 -22 c36 -10 40 -13 36 -38 -2 -15 1 -38 8 -50 16 -30 0 -44 -46 -43 -62 2 -115 74 -94 129 8 21 15 25 33 19 12 -4 40 -11 63 -17z m188 0 c27 1 28 -1 24 -31 -3 -18 -2 -41 2 -52 11 -29 -7 -45 -50 -45 -31 0 -44 7 -69 35 -33 38 -37 55 -20 87 9 17 16 19 47 12 21 -4 50 -7 66 -6z m-874 -32 c65 -12 65 -13 63 -45 -1 -30 -26 -71 -44 -71 -28 0 -117 108 -102 124 8 7 3 8 83 -8z m-396 -74 c-109 -166 -148 -271 -148 -404 -1 -114 4 -111 -114 -78 -39 11 -81 20 -92 20 -11 0 -20 3 -20 7 0 3 26 40 58 82 32 42 83 112 112 156 69 104 176 242 192 248 24 8 29 -5 12 -31z m134 -23 c22 -27 22 -28 5 -63 -13 -29 -14 -40 -4 -62 16 -35 0 -54 -46 -54 -38 0 -93 44 -93 75 0 21 35 91 68 134 23 32 27 33 36 16 6 -10 21 -30 34 -46z m1548 3 c-19 -37 -36 -53 -78 -75 -125 -64 -218 -200 -239 -352 -15 -102 -41 -165 -68 -165 -19 0 -20 2 -5 42 8 24 22 82 30 130 30 176 63 245 161 341 56 54 198 141 215 131 4 -3 -3 -26 -16 -52z m-1113 8 c34 0 35 -1 41 -51 4 -28 5 -54 2 -56 -10 -10 -75 8 -100 28 -19 15 -26 30 -26 53 0 40 7 48 31 36 10 -6 33 -10 52 -10z m131 10 c17 -5 42 -12 56 -14 24 -5 25 -8 20 -58 -4 -47 -8 -53 -30 -56 -34 -3 -88 32 -96 63 -7 26 2 75 13 75 4 0 20 -4 37 -10z m181 -24 l50 -13 0 -44 0 -44 -42 -3 c-32 -2 -47 2 -62 17 -23 23 -28 70 -9 89 7 7 12 12 13 12 0 -1 23 -7 50 -14z m174 -26 c49 -13 53 -33 11 -55 -40 -21 -67 -19 -80 6 -15 27 -4 73 15 65 7 -2 32 -10 54 -16z m-654 -4 c69 -14 80 -34 45 -79 -37 -47 -101 -27 -124 37 -7 20 1 56 12 55 4 0 34 -6 67 -13z m788 7 c8 -7 -11 -33 -24 -33 -5 0 -9 9 -9 20 0 19 20 27 33 13z m-907 -29 c1 -5 7 -28 14 -52 16 -51 8 -63 -45 -65 -29 -1 -43 5 -61 27 -22 25 -33 84 -19 98 9 9 109 2 111 -8z m1360 -81 c-11 -61 -16 -72 -35 -78 -29 -9 -135 -125 -166 -182 -35 -65 -50 -68 -42 -8 13 89 79 192 167 262 70 54 84 56 76 6z m-1059 12 c20 -6 -5 -65 -33 -77 -29 -13 -74 12 -74 41 0 43 10 51 54 45 22 -3 46 -7 53 -9z m113 -17 c0 -4 -3 -8 -7 -8 -5 0 -18 -3 -30 -6 -18 -5 -23 -2 -23 13 0 11 3 22 6 26 8 7 54 -13 54 -25z m-690 -46 c0 -7 -8 -27 -17 -43 -17 -28 -17 -29 15 -62 34 -35 39 -55 20 -90 -35 -67 -118 -57 -118 13 0 46 31 183 47 208 14 23 15 23 34 6 10 -9 19 -24 19 -32z m447 -20 c12 -28 11 -33 -9 -52 -47 -43 -129 3 -114 63 6 24 10 25 58 23 48 -3 53 -5 65 -34z m-298 -34 c9 -37 8 -45 -6 -55 -25 -19 -67 -16 -97 8 -42 33 -31 72 24 82 62 11 67 9 79 -35z m144 10 c3 -18 8 -41 12 -50 5 -13 0 -19 -18 -23 -45 -12 -117 42 -117 87 0 15 9 18 59 18 58 0 58 0 64 -32z m1884 -58 c-4 -54 -16 -90 -51 -163 -74 -155 -187 -259 -333 -308 -59 -19 -77 -21 -197 -14 -72 4 -166 8 -209 9 -87 3 -103 10 -61 28 20 8 85 11 204 10 153 -2 183 1 237 19 76 25 163 80 226 143 96 97 82 121 -16 27 -83 -79 -192 -137 -282 -151 -88 -12 -195 -13 -195 -1 0 11 29 21 148 51 120 30 195 68 297 151 147 121 173 150 205 237 21 55 33 38 27 -38z m-552 8 c-13 -58 -32 -84 -137 -181 -145 -136 -142 -97 8 99 62 80 97 112 122 113 10 1 12 -8 7 -31z m-1242 -35 c7 -13 -23 -74 -33 -68 -6 3 -10 22 -10 41 0 27 4 34 19 34 11 0 22 -3 24 -7z m-124 -20 c29 -7 37 -15 49 -52 16 -48 9 -61 -36 -61 -50 0 -92 48 -92 106 0 22 3 25 23 21 12 -3 37 -10 56 -14z m-109 -27 c0 -14 9 -41 21 -60 l20 -35 -21 -40 c-17 -34 -26 -41 -49 -41 -47 0 -100 85 -72 113 6 6 11 25 11 42 0 40 5 45 52 45 34 0 38 -3 38 -24z m1608 -81 c12 -11 -41 -43 -108 -65 -36 -12 -103 -39 -149 -61 -46 -21 -89 -39 -95 -39 -36 2 172 149 248 176 29 10 89 4 104 -11z m-1734 -60 c21 -52 16 -88 -16 -122 -47 -50 -87 -12 -95 91 l-6 65 44 4 c24 2 46 4 49 5 3 1 13 -18 24 -43z m1866 35 c13 -8 10 -14 -15 -35 -49 -41 -94 -61 -236 -104 -73 -22 -169 -54 -213 -71 -43 -17 -80 -29 -83 -27 -19 19 109 88 282 153 100 37 150 61 165 79 14 17 76 20 100 5z m-1570 -64 c0 -49 -13 -66 -52 -66 -21 0 -33 8 -48 33 -33 52 -24 71 35 77 28 3 53 4 58 2 4 -2 7 -22 7 -46z m-132 -73 c4 -49 -22 -83 -63 -83 -29 0 -65 32 -65 58 0 31 29 61 63 65 58 7 62 5 65 -40z m222 2 c22 -14 40 -29 40 -34 0 -16 -30 -41 -49 -41 -31 0 -66 55 -55 85 8 21 18 19 64 -10z m778 -38 c2 -10 -3 -33 -12 -52 -9 -18 -16 -38 -16 -43 0 -17 -35 -23 -64 -13 -40 16 -34 51 15 95 42 39 71 43 77 13z m86 13 c14 -5 26 -17 26 -25 0 -24 -46 -66 -64 -59 -20 7 -22 80 -3 87 6 3 13 6 14 6 1 1 13 -3 27 -9z m-956 -33 c4 -32 -21 -67 -49 -67 -39 0 -49 11 -49 57 l0 44 48 -3 c43 -3 47 -5 50 -31z m-278 -73 c0 -76 -10 -79 -52 -18 -43 61 -36 79 30 83 21 1 22 -3 22 -65z m497 36 c44 -21 53 -34 45 -63 -9 -37 -71 -38 -94 -3 -10 15 -10 86 0 86 5 0 27 -9 49 -20z m-87 -35 c0 -27 -5 -38 -23 -46 -32 -14 -75 4 -83 35 -9 37 2 46 57 46 l49 0 0 -35z m564 -56 c-9 -10 -23 -19 -29 -19 -20 0 -54 33 -57 55 -2 16 7 23 47 36 l50 16 3 -35 c2 -22 -3 -41 -14 -53z m-826 8 l-3 -72 -38 -3 c-55 -5 -67 10 -67 82 l0 61 55 2 56 2 -3 -72z m1050 39 c7 -35 -18 -66 -55 -66 -39 0 -41 12 -10 57 24 37 59 42 65 9z m-499 -12 c9 -8 -29 -73 -49 -84 -17 -9 -24 -6 -45 16 -24 26 -33 63 -18 77 6 7 103 -2 112 -9z m136 -4 c6 -10 -9 -45 -32 -72 -12 -13 -20 -14 -44 -6 -24 8 -29 16 -29 42 0 18 3 36 7 39 10 11 91 8 98 -3z m-551 -16 c10 -26 7 -47 -11 -66 -19 -21 -56 -24 -71 -5 -15 17 -25 64 -17 76 10 18 92 14 99 -5z m776 1 c35 -18 38 -37 10 -65 -23 -23 -58 -26 -85 -6 -18 13 -18 15 8 50 32 42 29 41 67 21z m-628 -40 c25 -55 -37 -104 -89 -70 -36 24 -29 69 12 73 17 2 34 8 40 13 15 15 25 11 37 -16z m162 -79 c-3 -7 -20 -22 -39 -32 -31 -17 -35 -17 -59 -1 -20 13 -26 26 -26 52 0 31 4 36 43 53 l42 19 22 -39 c12 -21 20 -45 17 -52z m318 67 l28 -27 -22 -23 c-24 -26 -65 -30 -93 -9 -17 12 -17 15 11 50 16 20 33 36 38 36 6 0 23 -12 38 -27z m-143 -50 c8 -6 -73 -83 -88 -83 -20 0 -51 30 -51 49 0 9 17 30 37 47 l38 32 30 -21 c16 -11 32 -22 34 -24z m365 38 c3 -5 -5 -16 -19 -25 -29 -19 -35 -20 -35 -3 0 28 41 49 54 28z m-830 -65 c8 -19 12 -45 9 -56 -5 -19 -11 -21 -41 -17 -43 7 -72 33 -72 63 0 17 8 24 38 32 20 5 40 10 44 11 4 1 14 -14 22 -33z m699 17 c23 -7 18 -22 -16 -47 -22 -16 -30 -18 -52 -8 l-26 12 23 30 c15 20 27 28 38 24 8 -3 23 -9 33 -11z m-833 -23 c0 -23 -22 -27 -39 -7 -13 16 -5 27 21 27 11 0 18 -7 18 -20z m288 -25 c19 -41 15 -85 -7 -85 -26 0 -85 21 -93 34 -19 27 -8 55 25 65 51 15 63 13 75 -14z m383 15 c43 -23 10 -60 -55 -60 -45 0 -54 15 -25 46 24 26 49 30 80 14z m-210 -46 c24 -25 24 -26 5 -40 -11 -8 -31 -14 -45 -14 -29 0 -83 39 -65 46 6 3 20 11 30 19 28 21 48 18 75 -11z m110 -24 c30 -16 23 -28 -22 -35 -50 -9 -61 1 -30 26 27 22 27 22 52 9z"/> <path d="M2780 4260 c0 -18 49 -35 62 -22 8 8 4 14 -16 22 -34 13 -46 13 -46 0z"/> <path d="M211 4451 c-14 -9 -12 -47 4 -85 7 -16 5 -17 -24 -11 -47 10 -64 -8 -55 -59 3 -23 10 -49 16 -58 11 -22 66 -24 74 -3 4 8 13 15 21 15 12 0 14 -7 8 -27 -11 -45 -11 -47 9 -51 28 -6 38 11 26 43 -13 35 -6 43 19 21 29 -26 61 -16 82 24 14 26 16 43 10 65 -7 28 -11 30 -49 28 l-42 -2 16 31 c12 24 13 36 5 54 -11 24 -45 32 -56 14 -4 -7 -12 -7 -25 0 -22 12 -21 12 -39 1z"/> <path d="M4188 4434 c-8 -16 -6 -31 6 -55 9 -18 15 -34 13 -35 -2 -2 -18 2 -35 8 -25 10 -34 10 -44 0 -17 -17 -14 -112 4 -123 25 -16 66 -10 82 13 21 30 33 14 18 -24 -13 -36 -9 -48 18 -48 28 0 33 16 15 51 -21 39 -12 49 19 20 31 -30 65 -24 87 14 13 22 16 39 10 65 -7 33 -10 35 -45 34 -31 -1 -36 1 -30 15 14 34 16 69 2 77 -7 5 -35 9 -62 9 -40 0 -50 -4 -58 -21z"/> <path d="M196 3303 c-11 -11 -6 -49 9 -69 22 -29 19 -33 -27 -31 -39 2 -42 0 -51 -30 -8 -28 -6 -37 17 -68 31 -40 58 -45 81 -12 13 18 17 20 25 7 5 -8 6 -27 3 -42 -5 -24 -2 -28 17 -28 20 0 21 3 15 42 l-7 41 27 -21 c37 -29 47 -28 74 8 16 22 21 42 19 68 -3 37 -3 37 -45 35 -24 -1 -43 0 -43 1 0 2 6 19 14 38 21 49 9 62 -62 64 -33 1 -63 0 -66 -3z"/> <path d="M4223 3303 c-49 -5 -55 -21 -27 -74 l15 -30 -44 6 -45 7 -7 -41 c-8 -50 12 -87 52 -97 21 -6 30 -2 41 14 22 34 33 26 26 -18 -5 -32 -3 -41 10 -46 30 -12 39 10 20 49 -22 46 -14 56 19 23 29 -29 44 -32 68 -13 27 21 38 51 30 87 -7 33 -10 35 -44 33 -20 -1 -37 -1 -37 1 0 2 7 20 15 39 13 32 13 37 -1 51 -8 9 -23 15 -32 14 -9 -1 -36 -3 -59 -5z"/> <path d="M377 2214 c-4 -4 -21 -7 -38 -8 -45 -1 -59 -27 -36 -67 24 -43 22 -49 -17 -42 -27 4 -36 1 -44 -14 -14 -25 1 -93 24 -110 25 -19 37 -16 64 12 27 29 44 16 29 -22 -13 -35 -11 -43 10 -43 27 0 34 15 19 39 -16 27 -3 38 20 18 10 -10 25 -17 34 -17 18 0 48 31 48 51 0 8 5 20 11 26 6 6 9 21 7 34 -3 22 -8 24 -50 22 -52 -1 -55 2 -33 31 21 28 19 73 -4 86 -23 12 -35 13 -44 4z"/> <path d="M4085 2196 c-15 -22 -15 -28 -1 -61 9 -21 16 -39 16 -41 0 -1 -19 -2 -42 -1 l-43 2 3 -49 c4 -79 53 -114 87 -62 18 27 49 25 65 -4 10 -19 43 -31 57 -21 18 13 43 61 45 88 3 43 -9 56 -48 50 -38 -6 -40 -3 -19 33 8 14 14 34 15 46 0 26 -39 46 -63 33 -11 -6 -24 -6 -37 1 -16 8 -22 6 -35 -14z"/> <path d="M4127 1969 c-11 -39 -8 -49 13 -49 23 0 27 27 7 55 -13 17 -14 17 -20 -6z"/> <path d="M666 1553 c-12 -12 -6 -59 10 -81 20 -29 14 -36 -19 -21 -46 21 -59 7 -53 -58 3 -31 12 -60 18 -65 24 -14 47 -8 64 17 18 28 51 33 61 10 3 -9 19 -23 36 -31 29 -15 30 -15 53 13 19 22 23 38 21 73 l-2 45 -43 -2 c-23 -1 -41 1 -39 5 2 4 9 20 17 35 22 44 5 62 -62 64 -31 1 -58 -1 -62 -4z"/> <path d="M3721 1543 c-14 -10 -14 -14 2 -47 23 -49 22 -58 -7 -44 -41 18 -56 5 -56 -50 0 -35 5 -54 18 -65 26 -24 59 -21 74 6 12 21 13 19 18 -23 3 -31 10 -45 20 -45 11 0 14 9 12 33 -4 35 3 39 32 17 43 -33 74 -6 82 70 5 54 -13 74 -53 56 -33 -15 -39 -9 -24 28 7 16 11 40 9 53 -3 21 -8 23 -57 23 -30 0 -61 -5 -70 -12z"/> <path d="M710 1338 c0 -7 -3 -23 -6 -35 -5 -20 -2 -23 20 -23 29 0 31 7 14 45 -12 26 -28 34 -28 13z"/> <path d="M1118 1014 c-10 -21 -9 -31 5 -56 24 -42 21 -48 -14 -35 -43 17 -62 -9 -53 -73 10 -75 55 -92 99 -37 l26 32 -3 -50 c-2 -39 0 -50 12 -50 11 0 14 10 13 38 -3 42 5 46 30 17 33 -39 73 -19 95 48 19 56 -12 91 -64 72 -36 -14 -40 -7 -20 34 20 42 20 60 1 76 -12 10 -22 10 -39 2 -14 -6 -28 -7 -37 -1 -24 15 -39 10 -51 -17z"/> <path d="M3273 1024 c-5 -14 -2 -35 12 -82 7 -21 6 -22 -19 -12 -33 12 -55 4 -67 -27 -15 -40 -10 -69 16 -97 31 -34 52 -33 73 4 21 37 31 37 70 0 55 -52 96 -35 107 46 8 63 -7 80 -61 69 l-36 -6 21 29 c20 29 29 81 14 83 -60 9 -125 5 -130 -7z"/> <path d="M3314 796 c-8 -32 2 -59 19 -53 14 5 13 55 -2 70 -7 7 -12 1 -17 -17z"/> <path d="M2192 468 c-17 -17 -15 -38 8 -75 l20 -33 -48 3 -47 2 1 -53 c3 -82 38 -106 84 -57 27 29 39 25 33 -10 -7 -33 3 -56 21 -49 11 4 13 15 9 41 l-6 36 24 -16 c13 -9 31 -17 39 -17 24 0 56 40 63 77 8 41 -11 57 -58 49 -40 -8 -40 -9 -19 32 8 18 13 41 9 51 -8 25 -41 36 -60 21 -10 -8 -19 -8 -34 -1 -25 14 -24 14 -39 -1z"/> </g> </svg>
